<?xml version="1.0" encoding="UTF-8"?>
<svg version="1.1" xmlns="http://www.w3.org/2000/svg" width="512" height="512">
<path d="M0 0 C2.28326416 1.9197073 2.28326416 1.9197073 4.47753906 4.13023376 C5.31853149 4.96999252 6.15952393 5.80975128 7.02600098 6.67495728 C7.9300769 7.59296112 8.83415283 8.51096497 9.765625 9.45678711 C10.7413219 10.4366085 11.71769935 11.4157526 12.69470215 12.39427185 C14.79105742 14.49670488 16.88262466 16.60374742 18.97058105 18.71452141 C22.27495165 22.05478854 25.59029087 25.38402377 28.90722656 28.71180725 C35.34891954 35.17759912 41.77925279 41.65462189 48.20855713 48.13272858 C56.39098006 56.37602972 64.57901586 64.61373388 72.77619553 72.84236151 C76.06941566 76.14893802 79.35731799 79.46068549 82.64108276 82.77665126 C84.68792311 84.84165041 86.73890838 86.90249555 88.79096985 88.96230507 C90.18876411 90.36795125 91.58147078 91.77865093 92.97399902 93.18951416 C99.09403426 99.32109207 104.21165816 104.33324551 113 106 C125.55515935 106 133.39448989 96.62667855 141.71058655 88.36929321 C143.35022411 86.71454421 144.9870148 85.05697074 146.62133789 83.39697266 C148.00864699 81.99509464 149.39596097 80.59322143 150.78345954 79.19153094 C152.25339629 77.70579048 153.7221098 76.21884907 155.19062996 74.73170853 C158.26787245 71.61665197 161.35196483 68.50843688 164.43760681 65.40170288 C165.2231555 64.61069811 165.2231555 64.61069811 166.02457386 63.80371344 C167.09412697 62.72675711 168.16369549 61.64981607 169.23327911 60.57289004 C176.40109656 53.3553154 183.56433443 46.13334106 190.70922852 38.89306641 C195.55183756 33.98591563 200.4050996 29.08957994 205.27080911 24.20533025 C207.83722924 21.62827252 210.39796734 19.04609861 212.94566536 16.45051956 C215.78356264 13.55946139 218.64461455 10.69241987 221.50805664 7.82666016 C222.75440887 6.54559387 222.75440887 6.54559387 224.02593994 5.23864746 C229.69637304 -0.38288543 234.76534326 -3.67059616 242.85546875 -4.1796875 C251.25114438 -3.08276506 256.08892538 -0.62443149 261.51953125 5.95703125 C265.08030924 10.87071698 265.67432569 16.0659339 265 22 C262.21495324 33.51152662 251.52065566 41.62969519 243.41625977 49.74487305 C242.50441925 50.66167847 241.59257874 51.57848389 240.65310669 52.52307129 C238.18237958 55.00674763 235.70847625 57.48723433 233.23350644 59.9666822 C231.68129699 61.52184726 230.12966589 63.0775872 228.57819939 64.63349342 C223.70565084 69.51966256 218.83114436 74.40386557 213.95372349 79.28517121 C208.35569015 84.88769062 202.7642728 90.49670432 197.17847401 96.11142129 C192.83531456 100.47627204 188.48633457 104.83526815 184.13298267 109.18995315 C181.54362386 111.78035343 178.95668584 114.37305925 176.37582588 116.97192955 C173.49663073 119.87083268 170.60543502 122.75748247 167.71313477 125.64331055 C166.87490677 126.49075333 166.03667877 127.33819611 165.17304993 128.21131897 C151.10979088 142.17668785 135.16380529 150.18610773 115.1875 150.4375 C83.15672409 150.2162269 64.88605366 128.04764637 43.83227038 107.03245902 C42.29436195 105.49751437 40.75588227 103.96314442 39.21724129 102.4289341 C34.38503109 97.61031462 29.55476284 92.78976138 24.72739547 87.96629018 C19.18542906 82.42882474 13.63693564 76.89800843 8.08282703 71.37272233 C3.76215083 67.07368311 -0.55272333 62.76887625 -4.86326259 58.45967323 C-7.42725505 55.89672463 -9.99357854 53.33622322 -12.56601143 50.781744 C-15.42682382 47.94052407 -18.27550676 45.08743234 -21.12329102 42.2331543 C-21.96745575 41.39820435 -22.81162048 40.56325439 -23.68136597 39.70300293 C-30.12887988 33.20931457 -34.62683592 27.59746127 -35.25 18.25 C-35.11910984 11.83638211 -33.18815037 6.9509793 -28.875 2.1875 C-20.30180124 -5.66677224 -9.82132751 -5.40207707 0 0 Z " fill="#FFFCFC" transform="translate(141,172)"/>
</svg>
